<?xml version="1.0" encoding="utf-8"?>
<!-- Generator: Adobe Illustrator 23.1.0, SVG Export Plug-In . SVG Version: 6.00 Build 0)  -->
<svg version="1.1" id="STATcube" xmlns="http://www.w3.org/2000/svg" xmlns:xlink="http://www.w3.org/1999/xlink" x="0px" y="0px"
	 viewBox="124 4 68 80" style="enable-background:new 0 0 198.1 89.78;" xml:space="preserve">
<style type="text/css">
	.st0{fill:#575756;}
	.st1{fill:url(#SVGID_1_);}
	.st2{fill:#DCDCDC;}
	.st3{opacity:0.65;fill:url(#SVGID_2_);}
	.st4{fill:#C30249;}
	.st5{opacity:0.58;fill:#7A0727;}
	.st6{fill:#FFFFFF;}
</style>
<linearGradient id="SVGID_1_" gradientUnits="userSpaceOnUse" x1="-122.7268" y1="918.952" x2="-91.5029" y2="918.952" gradientTransform="matrix(-0.8907 -0.4546 -0.4546 0.8907 487.1845 -802.4761)">
	<stop  offset="0" style="stop-color:#FFFFFF"/>
	<stop  offset="1" style="stop-color:#000000"/>
</linearGradient>
<polygon class="st1" points="138.11,82.76 180.11,69.15 191.57,46.7 149.56,60.31 "/>
<rect x="130.22" y="32.87" transform="matrix(0.9513 -0.3084 0.3084 0.9513 -9.5234 49.6455)" class="st2" width="44.16" height="44.16"/>
<linearGradient id="SVGID_2_" gradientUnits="userSpaceOnUse" x1="1355.6057" y1="1292.55" x2="1412.0321" y2="1292.55" gradientTransform="matrix(-0.4546 0.8907 0.8907 0.4546 -385.1653 -1769.6254)">
	<stop  offset="0" style="stop-color:#FFFFFF"/>
	<stop  offset="1" style="stop-color:#000000"/>
</linearGradient>
<polygon class="st3" points="138.11,82.76 149.56,60.31 135.94,18.31 124.49,40.76 "/>
<rect x="141.68" y="10.42" transform="matrix(0.9513 -0.3084 0.3084 0.9513 -2.0417 52.085)" class="st4" width="44.16" height="44.16"/>
<polygon class="st5" points="180.11,69.15 191.57,46.7 177.95,4.69 166.49,27.14 "/>
<rect x="144.86" y="30.56" transform="matrix(0.9513 -0.3083 0.3083 0.9513 -5.7834 50.8499)" class="st6" width="26.34" height="26.33"/>
</svg>
